<svg width="38" height="38" viewBox="0 0 38 38" fill="none" xmlns="http://www.w3.org/2000/svg">
<path d="M17.0631 27.8258C16.9215 27.8264 16.7807 27.8043 16.646 27.7605C16.4038 27.6822 16.1886 27.5373 16.0249 27.3424C15.8611 27.1474 15.7556 26.9104 15.7202 26.6583C15.5379 25.3865 14.0289 23.9062 12.6156 23.6188C12.3822 23.5705 12.1657 23.4616 11.9878 23.303C11.8099 23.1445 11.6769 22.9418 11.6022 22.7155C11.5275 22.4892 11.5137 22.2472 11.5623 22.0138C11.6109 21.7805 11.7201 21.5641 11.8789 21.3864L29.7749 1.45347C29.791 1.43482 29.808 1.41701 29.8249 1.40005C30.7239 0.50348 31.9418 0 33.2114 0C34.4811 0 35.6989 0.50348 36.5979 1.40005C37.4941 2.29687 37.9982 3.51234 38 4.7802C38.0017 6.04805 37.5009 7.26491 36.6073 8.16419L18.0406 27.4104C17.914 27.5418 17.7622 27.6464 17.5942 27.7177C17.4262 27.7891 17.2456 27.8259 17.0631 27.8258ZM7.46101 38C4.73621 38 1.91221 36.568 0.267498 34.3542C0.117594 34.1524 0.0267317 33.9129 0.00505293 33.6624C-0.0166258 33.4119 0.0317322 33.1603 0.144729 32.9357C0.257725 32.7111 0.430914 32.5223 0.644964 32.3904C0.859013 32.2586 1.1055 32.1888 1.35691 32.1888C1.80963 32.1888 3.05249 31.7759 3.05249 30.4448C3.05249 27.1323 5.71456 24.437 8.98704 24.437C12.2595 24.437 14.9216 27.1323 14.9216 30.4448C14.9216 34.6095 11.5745 38 7.46101 38Z" fill="#F8B52D"/>
</svg>
