<svg width="42" height="40" viewBox="0 0 42 40" fill="none" xmlns="http://www.w3.org/2000/svg">
<path d="M0 37.4985L7.71438 40L10.4513 37.2305L5.27546 31.993L0 37.4985ZM9.62059 18.7478C9.21414 19.1108 8.91948 19.5844 8.77176 20.1122C8.62405 20.64 8.62953 21.1997 8.78754 21.7244L9.79507 25.0704L5.86299 29.0501L13.2925 36.568L17.2192 32.5946L20.5189 33.6165C21.579 33.9446 22.7309 33.6157 23.4643 32.7743L26.209 29.5212L12.8262 15.9791L9.62059 18.7478ZM40.7584 6.19327L35.879 1.25581C34.297 -0.344958 31.7578 -0.425426 30.0793 1.07222L14.7115 14.3502L27.8187 27.6142L40.9398 12.0627C42.4206 10.3643 42.3411 7.79481 40.7584 6.19327Z" fill="#F8B52D"/>
</svg>
